# xmcd
# 
# Track frame offsets:
#     150
#     11041
#     25462
#     32898
#     49193
#     57177
#     69120
#     76730
#     96923
#     112193
#     126580
#     143240
#     165048
#     184844
#     196266
#     218233
#     236058
#     251163
#     267105
#     292344
#     307738
# 
# Disc length: 4357
# 
# Revision: 2
# Processed by: cddbd v1.5.2PL0 Copyright (c) Steve Scherf et al.
# Submitted via: fre:ac v1.0.31
# 
DISCID=32110315
DTITLE=The Nitty Gritty Dirt Band - Anthology Disc 1
DYEAR=2017
DGENRE=Country
TTITLE0=Buy for Me the Rain
TTITLE1=Some of Shelly's Blues
TTITLE2=Uncle Charlie Interview
TTITLE3=Mr. Bojangles
TTITLE4=Randy Lynn Rag
TTITLE5=House at Pooh Corner
TTITLE6=Opus 36
TTITLE7=Fish Song
TTITLE8=Jambalaya (On the Bayou)
TTITLE9=Grand Ole Opry Song
TTITLE10=You Are My Flower
TTITLE11=Tennessee Stud
TTITLE12=I Saw the Light
TTITLE13=Honky Tonkin'
TTITLE14=Will the Circle Be Unbroken
TTITLE15=Cosmic Cowboy, Pt. 1
TTITLE16=Battle of New Orleans
TTITLE17=Bayou Jubilee/Sally Was a Goodun (Medley)
TTITLE18=Ripplin' Waters
TTITLE19=Mother Earth (Provides for Me)
TTITLE20=Bowlegs
EXTD=
EXTT0=
EXTT1=
EXTT2=
EXTT3=
EXTT4=
EXTT5=
EXTT6=
EXTT7=
EXTT8=
EXTT9=
EXTT10=
EXTT11=
EXTT12=
EXTT13=
EXTT14=
EXTT15=
EXTT16=
EXTT17=
EXTT18=
EXTT19=
EXTT20=
PLAYORDER=
